<?xml version="1.0" standalone="no"?>
<!DOCTYPE svg PUBLIC "-//W3C//DTD SVG 1.1//EN" "http://www.w3.org/Graphics/SVG/1.1/DTD/svg11.dtd" >
<svg xmlns="http://www.w3.org/2000/svg">
<metadata></metadata>
<defs>
<font id="benderbold" horiz-adv-x="1062" >
<font-face units-per-em="2048" ascent="1638" descent="-410" />
<missing-glyph horiz-adv-x="602" />
<glyph unicode=" "  horiz-adv-x="602" />
<glyph unicode="&#x09;" horiz-adv-x="602" />
<glyph unicode="&#xa0;" horiz-adv-x="602" />
<glyph unicode="!" horiz-adv-x="506" d="M149 302l-11 1036h225l-7 -1036h-207zM201 -29l-69 70v104l69 69h104l70 -69v-104l-70 -70h-104z" />
<glyph unicode="&#x22;" horiz-adv-x="678" d="M86 752l-30 586h226l-30 -586h-166zM426 752l-30 586h226l-30 -586h-166z" />
<glyph unicode="#" horiz-adv-x="1408" d="M307 0h-222l128 324h-213v198h288l117 294h-209v198h284l131 324h222l-128 -324h267l130 324h223l-129 -324h213v-198h-288l-118 -294h210v-198h-286l-128 -324h-222l128 324h-270zM629 816l-117 -294h268l117 294h-268z" />
<glyph unicode="$" d="M304 915l613 -306l70 -131v-261l-216 -217h-142v-132h-196v132h-120l-238 79l65 191l207 -72h327l97 95v127l-18 28l-618 309l-60 127v237l217 217h141v131h196v-131h128l230 -78l-58 -186l-208 66h-333l-96 -96v-102z" />
<glyph unicode="%" horiz-adv-x="1510" d="M1030 584h245l180 -179v-226l-180 -179h-245l-178 179v226zM341 -38l-162 124l991 1289l162 -126zM1208 405h-110l-58 -58v-110l58 -58h110l58 58v110zM413 1159h-109l-59 -59v-109l59 -58h109l58 58v109zM480 1338l180 -179v-226l-180 -180h-244l-180 180v226l180 179 h244z" />
<glyph unicode="&#x26;" horiz-adv-x="1127" d="M946 -38l-139 170l-136 -132h-414l-219 217v249l273 265l-145 177v213l219 217h372l219 -218v-234h-217v156l-98 98h-181l-97 -98v-64l440 -535l137 134l150 -151l-151 -147l151 -183zM352 198h219l100 98l-228 275l-189 -183v-92z" />
<glyph unicode="'" horiz-adv-x="338" d="M86 752l-30 586h226l-30 -586h-166z" />
<glyph unicode="(" horiz-adv-x="532" d="M292 11l82 -132l160 -57l-67 -185l-244 86l-148 239v1097l148 239l244 87l67 -186l-160 -57l-82 -132v-999z" />
<glyph unicode=")" horiz-adv-x="532" d="M160 -121l81 132v999l-81 132l-160 57l66 186l245 -87l147 -239v-1097l-147 -239l-245 -86l-66 185z" />
<glyph unicode="*" horiz-adv-x="771" d="M471 1338v-173l153 94l92 -149l-168 -102l168 -104l-92 -149l-153 95v-174h-169v174l-153 -95l-93 149l168 102l-168 104l93 149l153 -94v173h169z" />
<glyph unicode="+" horiz-adv-x="942" d="M362 1074h217v-326h325v-198h-325v-324h-217v324h-324v198h324v326z" />
<glyph unicode="," horiz-adv-x="357" d="M0 -339l113 508h226l-188 -508h-151z" />
<glyph unicode="-" horiz-adv-x="904" d="M38 550v198h829v-198h-829z" />
<glyph unicode="." horiz-adv-x="356" d="M126 -29l-70 70v104l70 69h104l70 -69v-104l-70 -70h-104z" />
<glyph unicode="/" horiz-adv-x="1048" d="M173 -56l-173 112l876 1339l174 -113z" />
<glyph unicode="0" horiz-adv-x="1196" d="M351 1338h495l238 -217v-904l-238 -217h-495l-238 217v904zM759 198l108 100v621l-432 -721h324zM329 1040v-621l432 721h-324z" />
<glyph unicode="1" horiz-adv-x="701" d="M234 960l-68 -67l-148 147l298 298h178v-1140h190v-198h-598v198h191v762l9 63l-7 4z" />
<glyph unicode="2" horiz-adv-x="1056" d="M307 1140l-211 -66l-58 188l243 76h484l217 -218v-349l-170 -190l-546 -342v-41h716v-198h-933v343l618 385l98 108v206l-96 98h-362z" />
<glyph unicode="3" horiz-adv-x="1037" d="M642 791h121l219 -216v-358l-219 -217h-515l-230 79l67 191l207 -72h377l96 94v208l-96 93h-373v183l333 321l67 45l-4 7l-63 -9h-578v198h931v-177l-340 -327l-65 -45l4 -7z" />
<glyph unicode="4" horiz-adv-x="1084" d="M929 482h137v-198h-137v-284h-217v284h-694v216l728 838h183v-856zM324 482h388v442l9 61l-7 4l-45 -65l-345 -399l-65 -45l3 -7z" />
<glyph unicode="5" horiz-adv-x="1097" d="M119 1338h886v-198h-669v-324h468l219 -217v-382l-219 -217h-475l-235 79l66 191l214 -72h333l100 98v224l-100 98h-588v720z" />
<glyph unicode="6" horiz-adv-x="1139" d="M113 219v901l216 218h507l228 -78l-61 -188l-201 68h-378l-95 -96v-251l127 36h392l216 -218v-392l-216 -219h-519zM753 631h-322l-102 -22v-316l95 -95h329l95 95v242z" />
<glyph unicode="7" horiz-adv-x="969" d="M527 320v-320h-216v369l405 735v36h-698v198h915v-283z" />
<glyph unicode="8" horiz-adv-x="1173" d="M439 1140l-100 -98v-174l105 -82h286l104 82v174l-99 98h-296zM454 588l-125 -96v-196l101 -98h314l101 98v196l-126 96h-265zM341 1338h492l219 -217v-310l-155 -123l164 -129v-342l-219 -217h-511l-218 217v342l164 129l-155 123v310z" />
<glyph unicode="9" horiz-adv-x="1139" d="M1027 1120v-901l-216 -219h-507l-229 77l63 189l200 -68h378l95 95v252l-127 -36h-392l-217 219v392l217 218h519zM386 707h322l103 23v314l-95 96h-330l-94 -96v-242z" />
<glyph unicode=":" horiz-adv-x="356" d="M126 -29l-70 70v104l70 69h104l70 -69v-104l-70 -70h-104zM126 642l-70 70v104l70 70h104l70 -70v-104l-70 -70h-104z" />
<glyph unicode=";" horiz-adv-x="374" d="M145 642l-70 70v104l70 70h103l70 -70v-104l-70 -70h-103zM0 -339l113 508h226l-188 -508h-151z" />
<glyph unicode="&#x3c;" horiz-adv-x="678" d="M38 552l485 437l137 -151l-381 -342l381 -343l-137 -151l-485 437v113z" />
<glyph unicode="=" horiz-adv-x="904" d="M38 741v197h829v-197h-829zM38 362v197h829v-197h-829z" />
<glyph unicode="&#x3e;" horiz-adv-x="678" d="M155 989l485 -437v-113l-485 -437l-137 151l381 343l-381 342z" />
<glyph unicode="?" horiz-adv-x="1050" d="M333 1140l-186 -185l-147 149l236 234h523l217 -217v-356l-377 -334v-129h-216v220l376 334v188l-96 96h-330zM439 -29l-70 70v104l70 69h104l70 -69v-104l-70 -70h-104z" />
<glyph unicode="@" horiz-adv-x="1749" d="M1038 430v45h-286l-58 -58v-48l58 -58h183zM742 1000h322l182 -178v-436l13 -58h82l61 60v612l-154 140h-745l-154 -140v-878l154 -139h865v-197h-953l-283 252v1048l283 252h921l282 -252v-777l-180 -179h-315l-30 118l-110 -126h-316l-181 180v182l181 179h371v90 l-58 59h-213l-209 -66l-57 180z" />
<glyph unicode="A" horiz-adv-x="1118" d="M784 318h-448l-115 -356l-203 65l421 1311h241l420 -1311l-201 -65zM535 946l-138 -430h324l-137 430l-21 128h-7z" />
<glyph unicode="B" horiz-adv-x="1177" d="M919 697l165 -128v-350l-219 -219h-733v1338h731l181 -182v-361zM867 501l-125 96h-393v-399h424l94 94v209zM349 1140v-345h403l75 59v228l-58 58h-420z" />
<glyph unicode="C" horiz-adv-x="1141" d="M771 198l166 165l149 -146l-218 -217h-537l-218 219v901l218 218h515l218 -218v-234h-216v156l-98 98h-322l-99 -98v-746l99 -98h343z" />
<glyph unicode="D" horiz-adv-x="1197" d="M132 1338h735l219 -221v-896l-219 -221h-735v1338zM868 1042l-97 98h-422v-942h422l97 98v746z" />
<glyph unicode="E" horiz-adv-x="1041" d="M132 0v1338h853v-198h-636v-343h557v-198h-557v-401h636v-198h-853z" />
<glyph unicode="F" horiz-adv-x="1023" d="M132 0v1338h853v-198h-636v-387h557v-197h-557v-556h-217z" />
<glyph unicode="G" horiz-adv-x="1177" d="M1064 1121v-235h-216v158l-95 96h-329l-95 -96v-751l95 -95h329l95 95v227h-289v198h434l71 -72v-429l-216 -217h-519l-216 217v904l216 217h519z" />
<glyph unicode="H" horiz-adv-x="1214" d="M867 797v541h217v-1338h-217v599h-518v-599h-217v1338h217v-541h518z" />
<glyph unicode="I" horiz-adv-x="747" d="M673 0h-598v198h191v942h-191v198h598v-198h-191v-942h191v-198z" />
<glyph unicode="J" horiz-adv-x="1024" d="M259 0l-259 259l147 144l209 -205h241l99 98v844h-261v198h477v-1119l-218 -219h-435z" />
<glyph unicode="K" horiz-adv-x="1086" d="M650 761l416 -689l-180 -110l-383 633l-154 -175v-420h-217v1338h217v-597l559 634l160 -139z" />
<glyph unicode="L" horiz-adv-x="994" d="M132 0v1338h217v-1140h627v-198h-844z" />
<glyph unicode="M" horiz-adv-x="1566" d="M699 304l-314 555l-46 115h-8l18 -117v-857h-217v1338h215l410 -722l23 -62h8l23 62l410 722h215v-1338h-217v857l17 117h-8l-45 -115l-315 -555h-169z" />
<glyph unicode="N" horiz-adv-x="1217" d="M341 1338l492 -860l45 -115h8l-18 117v858h218v-1338h-210l-491 859l-46 115h-8l18 -117v-857h-217v1338h209z" />
<glyph unicode="O" horiz-adv-x="1233" d="M351 1338h533l237 -217v-904l-237 -217h-533l-238 217v904zM904 1040l-107 100h-360l-108 -100v-744l108 -98h360l107 100v742z" />
<glyph unicode="P" horiz-adv-x="1158" d="M349 466v-466h-217v1338h733l219 -217v-439l-219 -216h-516zM771 1140h-422v-477h422l96 98v281z" />
<glyph unicode="Q" horiz-adv-x="1233" d="M509 0h-158l-238 217v904l238 217h533l237 -217v-904l-237 -217h-159v-260h-216v260zM904 1040l-107 100h-360l-108 -100v-744l108 -98h72v113h216v-113h72l107 100v742z" />
<glyph unicode="R" horiz-adv-x="1181" d="M776 1140h-427v-426h427l91 88v250zM750 496l356 -390l-158 -144l-505 554h-94v-516h-217v1338h746l206 -204v-415l-206 -203h-125l-43 19l-3 -6z" />
<glyph unicode="S" d="M721 1140h-333l-96 -96v-102l12 -27l613 -306l70 -131v-261l-216 -217h-458l-238 79l65 191l207 -72h327l97 95v127l-18 28l-618 309l-60 127v237l217 217h465l230 -78l-58 -186z" />
<glyph unicode="T" horiz-adv-x="1014" d="M616 1140v-1140h-217v1140h-381v198h978v-198h-380z" />
<glyph unicode="U" horiz-adv-x="1177" d="M331 0l-218 217v1121h216v-1042l97 -98h326l96 98v1042h216v-1121l-218 -217h-515z" />
<glyph unicode="V" horiz-adv-x="1129" d="M561 271h8l21 128l316 976l205 -66l-423 -1309h-245l-425 1309l206 66l317 -976z" />
<glyph unicode="W" horiz-adv-x="1713" d="M753 1280h207l230 -773l23 -128h8l21 128l245 868l209 -58l-371 -1317h-198l-246 831l-20 128h-7l-21 -128l-245 -831h-198l-372 1317l210 58l245 -868l21 -128h7l22 128z" />
<glyph unicode="X" horiz-adv-x="1081" d="M537 833h8l22 62l321 480l175 -116l-398 -596l392 -582l-177 -119l-313 466l-22 61h-8l-23 -61l-313 -466l-176 119l392 582l-399 596l176 116l320 -480z" />
<glyph unicode="Y" horiz-adv-x="1107" d="M444 417l-426 861l196 97l315 -636l21 -110h8l21 110l314 636l196 -97l-428 -865v-413h-217v417z" />
<glyph unicode="Z" horiz-adv-x="1045" d="M360 198h620v-198h-924v164l634 956l43 33l-3 6l-45 -19h-619v198h923v-168l-633 -951l-43 -34l3 -6z" />
<glyph unicode="[" horiz-adv-x="487" d="M488 -316h-413v1654h413v-198h-196v-1259h196v-197z" />
<glyph unicode="\" horiz-adv-x="1048" d="M1050 56l-174 -112l-876 1338l173 113z" />
<glyph unicode="]" horiz-adv-x="487" d="M413 -316h-413v197h196v1259h-196v198h413v-1654z" />
<glyph unicode="^" horiz-adv-x="960" d="M410 1338h140l410 -543l-163 -124l-317 418l-316 -418l-164 124z" />
<glyph unicode="_" horiz-adv-x="877" d="M0 -198v198h878v-198h-878z" />
<glyph unicode="`" horiz-adv-x="442" d="M196 1338l266 -434h-180l-300 434h214z" />
<glyph unicode="a" d="M341 1023h398l180 -178v-581l59 -239l-176 -43l-35 144l-109 -126h-392l-181 179v252l181 180h437v156l-59 58h-275l-211 -66l-58 189zM703 316v97h-343l-58 -59v-97l58 -59h239z" />
<glyph unicode="b" horiz-adv-x="1084" d="M365 1123v-174l102 74h333l182 -178v-666l-182 -179h-471l-180 179v918l-64 192l203 68zM365 739v-482l59 -59h283l58 59v510l-58 58h-221z" />
<glyph unicode="c" horiz-adv-x="996" d="M682 198l208 66l59 -189l-241 -75h-424l-180 179v666l180 178h471l182 -178v-223h-218v145l-58 58h-282l-59 -58v-510l59 -59h303z" />
<glyph unicode="d" horiz-adv-x="1079" d="M616 198l103 118v423l-120 86h-220l-59 -58v-510l59 -59h237zM674 0h-390l-180 179v666l180 178h334l101 -74v389h218v-1074l58 -239l-175 -43l-36 144z" />
<glyph unicode="e" horiz-adv-x="1007" d="M673 198l211 66l58 -189l-241 -75h-417l-180 179v666l180 178h471l182 -178v-289l-162 -160h-455v-139l59 -59h294zM379 825l-59 -58v-174h351l48 49v125l-58 58h-282z" />
<glyph unicode="f" horiz-adv-x="796" d="M217 1159l179 179h244l241 -76l-58 -187l-205 65h-126l-59 -58v-172h274v-198h-274v-712h-216v712h-170v198h170v249z" />
<glyph unicode="g" horiz-adv-x="1043" d="M362 -138h368l25 27v50l-25 27h-476l-137 138v186l86 87l-86 87v381l181 178h398l239 59l43 -176l-145 -36l126 -109v-333l-181 -180h-437l-26 -25v-52l26 -26h475l137 -138v-186l-137 -137h-477l-235 73l52 169zM742 721l-118 104h-232l-59 -58v-226l95 -95h256l58 59 v216z" />
<glyph unicode="h" horiz-adv-x="1084" d="M365 739v-739h-216v1097l-64 192l203 68l77 -234v-174l102 74h333l182 -178v-845h-217v767l-58 58h-221z" />
<glyph unicode="i" horiz-adv-x="482" d="M365 809v-809h-216v782l-64 192l203 68zM205 1140l-70 70v103l70 70h104l70 -70v-103l-70 -70h-104z" />
<glyph unicode="j" horiz-adv-x="478" d="M362 809v-867l-130 -181l-309 -110l-65 191l234 83l53 73v784l-64 192l203 68zM201 1140l-69 70v103l69 70h104l70 -70v-103l-70 -70h-104z" />
<glyph unicode="k" horiz-adv-x="971" d="M385 1123v-494l444 423l143 -151l-337 -320l337 -491l-172 -119l-322 468l-93 -88v-351h-218v1097l-63 192l203 68z" />
<glyph unicode="l" horiz-adv-x="468" d="M365 1123v-1123h-216v1097l-64 192l203 68z" />
<glyph unicode="m" horiz-adv-x="1589" d="M718 1023l98 -108l98 108h391l182 -178v-845h-217v767l-58 58h-219l-69 -75v-750h-217v750l-70 75h-173l-104 -118v-707h-216v759l-59 239l175 44l36 -145l109 126h313z" />
<glyph unicode="n" horiz-adv-x="1081" d="M144 759l-59 239l175 44l36 -145l109 126h392l181 -178v-845h-217v767l-58 58h-239l-104 -118v-707h-216v759z" />
<glyph unicode="o" horiz-adv-x="1048" d="M946 181l-179 -181h-485l-178 181v661l178 181h485l179 -181v-661zM379 198h292l59 59v510l-59 58h-292l-59 -58v-510z" />
<glyph unicode="p" horiz-adv-x="1079" d="M464 825l-104 -118v-423l120 -86h221l58 59v510l-58 58h-237zM405 1023h390l181 -178v-666l-181 -179h-333l-102 74v-390h-216v1075l-59 239l175 44l36 -145z" />
<glyph unicode="q" horiz-adv-x="1066" d="M719 -100v174l-101 -74h-334l-180 179v666l180 178h471l182 -178v-919l63 -192l-203 -67zM719 284v483l-58 58h-282l-59 -58v-510l59 -59h220z" />
<glyph unicode="r" horiz-adv-x="939" d="M464 825l-104 -118v-707h-216v759l-59 239l175 44l36 -145l109 126h313l222 -216l-143 -147l-170 165h-163z" />
<glyph unicode="s" horiz-adv-x="924" d="M275 725l27 -43l491 -170l72 -116v-217l-180 -179h-401l-237 79l64 191l215 -72h262l61 61v43l-27 43l-492 169l-72 117v214l179 178h403l238 -79l-64 -191l-215 72h-263l-61 -60v-40z" />
<glyph unicode="t" horiz-adv-x="872" d="M207 807h-169v198h169v277h217v-277h273v-198h-273v-550l58 -59h127l205 64l58 -187l-241 -75h-245l-179 179v628z" />
<glyph unicode="u" horiz-adv-x="1081" d="M938 264l58 -239l-174 -43l-36 144l-110 -126h-392l-180 179v844h216v-766l59 -59h239l103 118v707h217v-759z" />
<glyph unicode="v" horiz-adv-x="994" d="M494 286h7l24 111l255 655l196 -78l-379 -974h-200l-379 974l196 78l255 -655z" />
<glyph unicode="w" horiz-adv-x="1401" d="M597 974h207l159 -503l20 -109h8l23 109l171 581l198 -59l-294 -993h-183l-181 575l-20 109h-8l-21 -109l-180 -575h-183l-295 993l199 59l171 -581l22 -109h9l20 109z" />
<glyph unicode="x" horiz-adv-x="930" d="M462 661h7l23 62l249 338l171 -126l-315 -426l315 -419l-170 -128l-250 334l-23 62h-7l-23 -62l-250 -334l-171 128l315 419l-315 426l172 126l249 -338z" />
<glyph unicode="y" horiz-adv-x="981" d="M541 349l230 703l201 -67l-382 -1170l-132 -131h-296v197h198l48 49l23 70h-37l-385 974l198 78l277 -703l25 -112h7z" />
<glyph unicode="z" horiz-adv-x="888" d="M352 198h496v-198h-810v169l505 635l43 34l-4 7l-43 -20h-498v198h811v-171l-503 -633l-44 -34l4 -6z" />
<glyph unicode="{" horiz-adv-x="642" d="M38 450v109l165 146v386l144 226l252 58l43 -188l-154 -36l-68 -107v-424l-130 -115l130 -115v-413l68 -107l154 -36l-43 -188l-252 58l-144 226v375z" />
<glyph unicode="|" horiz-adv-x="482" d="M351 -316h-219v1654h219v-1654z" />
<glyph unicode="}" horiz-adv-x="642" d="M604 559v-109l-165 -145v-375l-143 -226l-253 -58l-43 188l155 36l68 107v413l129 115l-129 115v424l-68 107l-155 36l43 188l253 -58l143 -226v-386z" />
<glyph unicode="~" horiz-adv-x="1169" d="M874 857l259 -258l-148 -145l-209 206h-34l-219 -219h-227l-258 258l147 146l209 -207h34l218 219h228z" />
<glyph unicode="&#xa2;" horiz-adv-x="996" d="M626 1023h129l182 -178v-223h-218v145l-58 58h-282l-59 -58v-510l59 -59h303l208 66l59 -189l-241 -75h-82v-132h-196v132h-146l-180 179v666l180 178h146v132h196v-132z" />
<glyph unicode="&#xa4;" horiz-adv-x="1152" d="M739 1140h-428v-345h419l99 89v168zM820 567l117 -360l150 -45l-64 -191l-252 78l-117 354h-343v-403h-217v403h-94v164h94v73h-94v155h94v543h746l206 -204v-327l-187 -167h-548v-73h509z" />
<glyph unicode="&#xa5;" horiz-adv-x="1107" d="M130 217v169h314v31l-18 36h-296v169h213l-325 656l196 97l315 -636l21 -110h8l21 110l314 636l196 -97l-324 -656h192v-169h-277l-19 -40v-27h296v-169h-296v-217h-217v217h-314z" />
<glyph unicode="&#xa6;" horiz-adv-x="482" d="M351 1338v-692h-219v692h219zM351 -316h-219v691h219v-691z" />
<glyph unicode="&#xa7;" horiz-adv-x="998" d="M96 443v224l117 126l-47 25l-70 130v211l179 179h421l228 -79l-67 -191l-207 72h-279l-58 -58v-89l15 -30l505 -255l70 -129v-225l-119 -126l49 -25l70 -129v-212l-180 -178h-419l-229 79l67 190l207 -72h278l58 58v90l-14 29l-505 255zM673 561l-265 135l-95 -103v-109 l13 -24l264 -136l95 104v109z" />
<glyph unicode="&#xa9;" horiz-adv-x="1656" d="M1543 1084v-830l-281 -254h-868l-281 254v830l281 254h868zM1327 339v659l-155 142h-688l-155 -142v-659l155 -141h688zM899 471l209 66l53 -172l-234 -73h-262l-179 181v392l179 181h317l179 -181v-155h-198v99l-59 58h-162l-58 -58v-280l58 -58h157z" />
<glyph unicode="&#xab;" horiz-adv-x="1246" d="M38 496l552 495l135 -153l-382 -342l382 -343l-135 -153zM541 496l552 495l135 -153l-382 -342l382 -343l-135 -153z" />
<glyph unicode="&#xac;" horiz-adv-x="791" d="M535 362v188h-497v198h715v-386h-218z" />
<glyph unicode="&#xad;" horiz-adv-x="904" d="M38 550v198h829v-198h-829z" />
<glyph unicode="&#xae;" horiz-adv-x="1656" d="M1543 1084v-830l-281 -254h-868l-281 254v830l281 254h868zM1327 339v659l-155 142h-688l-155 -142v-659l155 -141h688zM985 829l-18 19h-266v-120h266l18 18v83zM1025 532l171 -203l-31 -27h-176l-209 246h-79v-237h-198v716h571l107 -106v-267l-107 -106h-47l-27 11 l-4 -5z" />
<glyph unicode="&#xb0;" horiz-adv-x="715" d="M413 1159h-109l-59 -59v-109l59 -58h109l58 58v109zM480 1338l180 -179v-226l-180 -180h-244l-180 180v226l180 179h244z" />
<glyph unicode="&#xb1;" horiz-adv-x="942" d="M362 1074h217v-298h325v-197h-325v-297h-217v297h-324v197h324v298zM56 56v170h830v-170h-830z" />
<glyph unicode="&#xb5;" horiz-adv-x="1081" d="M938 264l58 -239l-174 -43l-36 144l-110 -126h-318l-38 38v-354h-216v1339h216v-766l59 -59h239l103 118v707h217v-759z" />
<glyph unicode="&#xb6;" horiz-adv-x="1184" d="M685 -316h-216v621h-194l-219 222v594l219 217h410v-1654zM1053 -316h-217v1654h217v-1654z" />
<glyph unicode="&#xb7;" horiz-adv-x="602" d="M248 539l-69 70v103l69 70h106l70 -70v-103l-70 -70h-106z" />
<glyph unicode="&#xbb;" horiz-adv-x="1246" d="M658 991l552 -495l-552 -496l-136 153l382 343l-382 342zM155 991l552 -495l-552 -496l-137 153l383 343l-383 342z" />
<glyph unicode="&#xc0;" horiz-adv-x="1118" d="M784 318h-448l-115 -356l-203 65l421 1311h241l420 -1311l-201 -65zM535 946l-138 -430h324l-137 430l-21 128h-7zM450 1818l244 -396h-180l-278 396h214z" />
<glyph unicode="&#xc1;" horiz-adv-x="1118" d="M784 318h-448l-115 -356l-203 65l421 1311h241l420 -1311l-201 -65zM535 946l-138 -430h324l-137 430l-21 128h-7zM458 1422l243 396h214l-278 -396h-179z" />
<glyph unicode="&#xc2;" horiz-adv-x="1118" d="M784 318h-448l-115 -356l-203 65l421 1311h241l420 -1311l-201 -65zM535 946l-138 -430h324l-137 430l-21 128h-7zM737 1422l-108 101v201l286 -302h-178zM480 1523l-106 -101h-180l286 302v-201z" />
<glyph unicode="&#xc3;" horiz-adv-x="1118" d="M784 318h-448l-115 -356l-203 65l421 1311h241l420 -1311l-201 -65zM535 946l-138 -430h324l-137 430l-21 128h-7zM752 1764l183 -183l-147 -145l-134 130l-172 -144h-146l-183 183l147 146l133 -131l171 144h148z" />
<glyph unicode="&#xc4;" horiz-adv-x="1118" d="M784 318h-448l-115 -356l-203 65l421 1311h241l420 -1311l-201 -65zM535 946l-138 -430h324l-137 430l-21 128h-7zM339 1432l-69 69v104l69 70h104l69 -70v-104l-69 -69h-104zM692 1432l-70 69v104l70 70h103l70 -70v-104l-70 -69h-103z" />
<glyph unicode="&#xc5;" horiz-adv-x="1118" d="M644 1611l142 -142v-150l-76 -75l390 -1217l-201 -65l-115 356h-448l-115 -356l-203 65l390 1217l-75 75v150l142 142h169zM535 946l-138 -430h324l-137 430l-21 128h-7zM595 1451h-72l-20 -21v-71l20 -21h72l21 21v71z" />
<glyph unicode="&#xc6;" horiz-adv-x="1759" d="M867 0v318h-468l-196 -356l-185 102l703 1274h982v-198h-619v-343h540v-198h-540v-401h619v-198h-836zM867 516v624h-13l-345 -624h358z" />
<glyph unicode="&#xc7;" horiz-adv-x="1141" d="M471 -207v207h-140l-218 219v901l218 218h515l218 -218v-234h-216v156l-98 98h-322l-99 -98v-746l99 -98h343l166 165l149 -146l-218 -217h-228v-29h56l140 -140v-160l-140 -142h-234v179h165l22 21v43l-22 21h-156z" />
<glyph unicode="&#xc8;" horiz-adv-x="1041" d="M132 0v1338h853v-198h-636v-343h557v-198h-557v-401h636v-198h-853zM473 1837l243 -395h-179l-278 395h214z" />
<glyph unicode="&#xc9;" horiz-adv-x="1041" d="M132 0v1338h853v-198h-636v-343h557v-198h-557v-401h636v-198h-853zM462 1442l243 395h214l-279 -395h-178z" />
<glyph unicode="&#xca;" horiz-adv-x="1041" d="M132 0v1338h853v-198h-636v-343h557v-198h-557v-401h636v-198h-853zM744 1422l-107 101v201l287 -302h-180zM488 1523l-107 -101h-180l287 302v-201z" />
<glyph unicode="&#xcb;" horiz-adv-x="1041" d="M132 0v1338h853v-198h-636v-343h557v-198h-557v-401h636v-198h-853zM339 1469l-69 70v104l69 70h104l69 -70v-104l-69 -70h-104zM692 1469l-70 70v104l70 70h103l70 -70v-104l-70 -70h-103z" />
<glyph unicode="&#xcc;" horiz-adv-x="747" d="M673 0h-598v198h191v942h-191v198h598v-198h-191v-942h191v-198zM237 1837l243 -395h-178l-279 395h214z" />
<glyph unicode="&#xcd;" horiz-adv-x="747" d="M673 0h-598v198h191v942h-191v198h598v-198h-191v-942h191v-198zM281 1442l242 395h216l-279 -395h-179z" />
<glyph unicode="&#xce;" horiz-adv-x="747" d="M673 0h-598v198h191v942h-191v198h598v-198h-191v-942h191v-198zM559 1422l-106 101v201l286 -302h-180zM304 1523l-108 -101h-179l287 302v-201z" />
<glyph unicode="&#xcf;" horiz-adv-x="747" d="M673 0h-598v198h191v942h-191v198h598v-198h-191v-942h191v-198zM147 1451l-70 70v103l70 70h103l70 -70v-103l-70 -70h-103zM500 1451l-70 70v103l70 70h103l70 -70v-103l-70 -70h-103z" />
<glyph unicode="&#xd1;" horiz-adv-x="1217" d="M341 1338l492 -860l45 -115h8l-18 117v858h218v-1338h-210l-491 859l-46 115h-8l18 -117v-857h-217v1338h209zM782 1764l183 -183l-147 -145l-134 130l-172 -144h-147l-182 183l146 146l135 -131l171 144h147z" />
<glyph unicode="&#xd2;" horiz-adv-x="1233" d="M351 1338h533l237 -217v-904l-237 -217h-533l-238 217v904zM904 1040l-107 100h-360l-108 -100v-744l108 -98h360l107 100v742zM480 1837l243 -395h-178l-279 395h214z" />
<glyph unicode="&#xd3;" horiz-adv-x="1233" d="M351 1338h533l237 -217v-904l-237 -217h-533l-238 217v904zM904 1040l-107 100h-360l-108 -100v-744l108 -98h360l107 100v742zM512 1442l243 395h216l-279 -395h-180z" />
<glyph unicode="&#xd4;" horiz-adv-x="1233" d="M884 1338l237 -217v-904l-237 -217h-533l-238 217v904l238 217h533zM797 1140h-360l-108 -100v-744l108 -98h360l107 100v742zM804 1422l-107 101v201l286 -302h-179zM548 1523l-107 -101h-179l286 302v-201z" />
<glyph unicode="&#xd5;" horiz-adv-x="1233" d="M351 1338h533l237 -217v-904l-237 -217h-533l-238 217v904zM904 1040l-107 100h-360l-108 -100v-744l108 -98h360l107 100v742zM809 1764l182 -183l-146 -145l-135 130l-171 -144h-147l-183 183l147 146l133 -131l172 144h148z" />
<glyph unicode="&#xd6;" horiz-adv-x="1233" d="M351 1338h533l237 -217v-904l-237 -217h-533l-238 217v904zM904 1040l-107 100h-360l-108 -100v-744l108 -98h360l107 100v742zM388 1469l-70 70v104l70 70h104l69 -70v-104l-69 -70h-104zM741 1469l-70 70v104l70 70h104l69 -70v-104l-69 -70h-104z" />
<glyph unicode="&#xd7;" horiz-adv-x="827" d="M36 872l153 155l231 -232l230 232l139 -141l-230 -230l230 -230l-154 -153l-228 230l-229 -230l-140 140l228 229z" />
<glyph unicode="&#xd8;" horiz-adv-x="1233" d="M266 -56l-174 112l74 111l-53 50v904l238 217h533l30 -29l55 86l173 -113l-74 -114l53 -47v-904l-237 -217h-533l-31 27zM329 1040v-621l473 721h-365zM797 198l107 100v619l-473 -719h366z" />
<glyph unicode="&#xd9;" horiz-adv-x="1177" d="M331 0l-218 217v1121h216v-1042l97 -98h326l96 98v1042h216v-1121l-218 -217h-515zM488 1800l243 -396h-179l-279 396h215z" />
<glyph unicode="&#xda;" horiz-adv-x="1177" d="M331 0l-218 217v1121h216v-1042l97 -98h326l96 98v1042h216v-1121l-218 -217h-515zM480 1404l243 396h215l-278 -396h-180z" />
<glyph unicode="&#xdb;" horiz-adv-x="1177" d="M331 0l-218 217v1121h216v-1042l97 -98h326l96 98v1042h216v-1121l-218 -217h-515zM765 1422l-107 101v201l286 -302h-179zM509 1523l-108 -101h-178l286 302v-201z" />
<glyph unicode="&#xdc;" horiz-adv-x="1177" d="M331 0l-218 217v1121h216v-1042l97 -98h326l96 98v1042h216v-1121l-218 -217h-515zM362 1469l-70 70v104l70 70h104l69 -70v-104l-69 -70h-104zM714 1469l-70 70v104l70 70h104l70 -70v-104l-70 -70h-104z" />
<glyph unicode="&#xdd;" horiz-adv-x="1107" d="M444 417l-426 861l196 97l315 -636l21 -110h8l21 110l314 636l196 -97l-428 -865v-413h-217v417zM453 1404l243 396h214l-279 -396h-178z" />
<glyph unicode="&#xdf;" horiz-adv-x="1177" d="M349 1082v-1082h-217v1156l181 182h541l180 -182v-212l-239 -192v-40l27 -43l190 -66l72 -117v-307l-180 -179h-226l-237 79l64 191l214 -72h88l60 61v133l-27 43l-190 66l-71 117v213l239 192v59l-59 58h-352z" />
<glyph unicode="&#xe0;" d="M341 1023h398l180 -178v-581l59 -239l-176 -43l-35 144l-109 -126h-392l-181 179v252l181 180h437v156l-59 58h-275l-211 -66l-58 189zM703 316v97h-343l-58 -59v-97l58 -59h239zM408 1503l244 -395h-179l-279 395h214z" />
<glyph unicode="&#xe1;" d="M341 1023h398l180 -178v-581l59 -239l-176 -43l-35 144l-109 -126h-392l-181 179v252l181 180h437v156l-59 58h-275l-211 -66l-58 189zM703 316v97h-343l-58 -59v-97l58 -59h239zM419 1108l242 395h215l-279 -395h-178z" />
<glyph unicode="&#xe2;" d="M341 1023h398l180 -178v-581l59 -239l-176 -43l-35 144l-109 -126h-392l-181 179v252l181 180h437v156l-59 58h-275l-211 -66l-58 189zM703 316v97h-343l-58 -59v-97l58 -59h239zM173 1098l268 283h186l268 -283h-179l-182 170l-182 -170h-179z" />
<glyph unicode="&#xe3;" d="M341 1023h398l180 -178v-581l59 -239l-176 -43l-35 144l-109 -126h-392l-181 179v252l181 180h437v156l-59 58h-275l-211 -66l-58 189zM703 316v97h-343l-58 -59v-97l58 -59h239zM721 1440l183 -183l-147 -146l-133 131l-171 -144h-148l-183 184l148 144l133 -130 l172 144h146z" />
<glyph unicode="&#xe4;" d="M341 1023h398l180 -178v-581l59 -239l-176 -43l-35 144l-109 -126h-392l-181 179v252l181 180h437v156l-59 58h-275l-211 -66l-58 189zM703 316v97h-343l-58 -59v-97l58 -59h239zM309 1140l-70 70v103l70 70h104l69 -70v-103l-69 -70h-104zM669 1140l-70 70v103l70 70 h104l69 -70v-103l-69 -70h-104z" />
<glyph unicode="&#xe5;" d="M341 1023h398l180 -178v-581l59 -239l-176 -43l-35 144l-109 -126h-392l-181 179v252l181 180h437v156l-59 58h-275l-211 -66l-58 189zM703 316v97h-343l-58 -59v-97l58 -59h239zM573 1381h-72l-21 -20v-72l21 -21h72l20 21v72zM622 1541l141 -141v-151l-141 -141h-169 l-142 141v151l142 141h169z" />
<glyph unicode="&#xe6;" horiz-adv-x="1550" d="M1215 198l211 66l59 -189l-241 -75h-388l-123 121l-104 -121h-363l-181 179v252l181 170h408v166l-58 58h-247l-211 -66l-58 189l241 75h369l72 -72l74 72h442l181 -178v-282l-162 -160h-426v-146l58 -59h266zM949 825l-58 -58v-166h322l49 49v117l-58 58h-255zM674 316 v87h-314l-58 -58v-88l58 -59h211z" />
<glyph unicode="&#xe7;" horiz-adv-x="996" d="M426 -207v207h-142l-180 179v666l180 178h471l182 -178v-223h-218v145l-58 58h-282l-59 -58v-510l59 -59h303l208 66l59 -189l-241 -75h-113v-29h55l141 -140v-160l-141 -142h-233v179h165l21 21v43l-21 21h-156z" />
<glyph unicode="&#xe8;" horiz-adv-x="1007" d="M673 198l211 66l58 -189l-241 -75h-417l-180 179v666l180 178h471l182 -178v-289l-162 -160h-455v-139l59 -59h294zM379 825l-59 -58v-174h351l48 49v125l-58 58h-282zM397 1503l243 -395h-178l-279 395h214z" />
<glyph unicode="&#xe9;" horiz-adv-x="1007" d="M673 198l211 66l58 -189l-241 -75h-417l-180 179v666l180 178h471l182 -178v-289l-162 -160h-455v-139l59 -59h294zM379 825l-59 -58v-174h351l48 49v125l-58 58h-282zM405 1108l244 395h214l-279 -395h-179z" />
<glyph unicode="&#xea;" horiz-adv-x="1007" d="M673 198l211 66l58 -189l-241 -75h-417l-180 179v666l180 178h471l182 -178v-289l-162 -160h-455v-139l59 -59h294zM379 825l-59 -58v-174h351l48 49v125l-58 58h-282zM162 1098l268 283h186l268 -283h-179l-183 170l-181 -170h-179z" />
<glyph unicode="&#xeb;" horiz-adv-x="1007" d="M673 198l211 66l58 -189l-241 -75h-417l-180 179v666l180 178h471l182 -178v-289l-162 -160h-455v-139l59 -59h294zM379 825l-59 -58v-174h351l48 49v125l-58 58h-282zM298 1140l-70 70v103l70 70h103l70 -70v-103l-70 -70h-103zM658 1140l-70 70v103l70 70h103l70 -70 v-103l-70 -70h-103z" />
<glyph unicode="&#xec;" horiz-adv-x="482" d="M365 809v-809h-216v782l-64 192l203 68zM153 1503l243 -395h-179l-280 395h216z" />
<glyph unicode="&#xed;" horiz-adv-x="482" d="M365 809v-809h-216v782l-64 192l203 68zM122 1108l243 395h216l-279 -395h-180z" />
<glyph unicode="&#xee;" horiz-adv-x="482" d="M365 809v-809h-216v782l-64 192l203 68zM-104 1098l268 283h187l267 -283h-179l-182 170l-182 -170h-179z" />
<glyph unicode="&#xef;" horiz-adv-x="482" d="M365 809v-809h-216v782l-64 192l203 68zM27 1140l-70 70v103l70 70h103l70 -70v-103l-70 -70h-103zM386 1140l-70 70v103l70 70h103l70 -70v-103l-70 -70h-103z" />
<glyph unicode="&#xf1;" horiz-adv-x="1081" d="M144 759l-59 239l175 44l36 -145l109 126h392l181 -178v-845h-217v767l-58 58h-239l-104 -118v-707h-216v759zM773 1440l182 -183l-146 -146l-135 131l-171 -144h-147l-183 184l147 144l134 -130l172 144h147z" />
<glyph unicode="&#xf2;" horiz-adv-x="1048" d="M946 181l-179 -181h-485l-178 181v661l178 181h485l179 -181v-661zM379 198h292l59 59v510l-59 58h-292l-59 -58v-510zM396 1503l242 -395h-178l-279 395h215z" />
<glyph unicode="&#xf3;" horiz-adv-x="1048" d="M946 181l-179 -181h-485l-178 181v661l178 181h485l179 -181v-661zM379 198h292l59 59v510l-59 58h-292l-59 -58v-510zM415 1108l243 395h214l-279 -395h-178z" />
<glyph unicode="&#xf4;" horiz-adv-x="1048" d="M946 181l-179 -181h-485l-178 181v661l178 181h485l179 -181v-661zM379 198h292l59 59v510l-59 58h-292l-59 -58v-510zM173 1098l268 283h186l268 -283h-179l-182 170l-182 -170h-179z" />
<glyph unicode="&#xf5;" horiz-adv-x="1048" d="M946 181l-179 -181h-485l-178 181v661l178 181h485l179 -181v-661zM379 198h292l59 59v510l-59 58h-292l-59 -58v-510zM741 1440l183 -183l-148 -146l-134 131l-171 -144h-147l-182 184l146 144l134 -130l171 144h148z" />
<glyph unicode="&#xf6;" horiz-adv-x="1048" d="M946 181l-179 -181h-485l-178 181v661l178 181h485l179 -181v-661zM379 198h292l59 59v510l-59 58h-292l-59 -58v-510zM293 1140l-69 70v103l69 70h104l70 -70v-103l-70 -70h-104zM654 1140l-70 70v103l70 70h103l70 -70v-103l-70 -70h-103z" />
<glyph unicode="&#xf7;" horiz-adv-x="942" d="M38 748h866v-198h-866v198zM419 226l-70 70v103l70 70h103l70 -70v-103l-70 -70h-103zM419 831l-70 70v104l70 69h103l70 -69v-104l-70 -70h-103z" />
<glyph unicode="&#xf8;" horiz-adv-x="1048" d="M282 0l-35 30l-40 -51l-121 89l58 74l-40 39v661l178 181h485l35 -30l40 51l121 -89l-57 -74l40 -39v-661l-179 -181h-485zM671 198l59 59v369l-336 -428h277zM320 767v-370l336 428h-277z" />
<glyph unicode="&#xf9;" horiz-adv-x="1081" d="M938 264l58 -239l-174 -43l-36 144l-110 -126h-392l-180 179v844h216v-766l59 -59h239l103 118v707h217v-759zM403 1466l243 -396h-179l-278 396h214z" />
<glyph unicode="&#xfa;" horiz-adv-x="1081" d="M938 264l58 -239l-174 -43l-36 144l-110 -126h-392l-180 179v844h216v-766l59 -59h239l103 118v707h217v-759zM419 1070l242 396h215l-279 -396h-178z" />
<glyph unicode="&#xfb;" horiz-adv-x="1081" d="M938 264l58 -239l-174 -43l-36 144l-110 -126h-392l-180 179v844h216v-766l59 -59h239l103 118v707h217v-759zM160 1098l268 283h187l266 -283h-178l-183 170l-181 -170h-179z" />
<glyph unicode="&#xfc;" horiz-adv-x="1081" d="M938 264l58 -239l-174 -43l-36 144l-110 -126h-392l-180 179v844h216v-766l59 -59h239l103 118v707h217v-759zM290 1140l-69 70v103l69 70h104l70 -70v-103l-70 -70h-104zM650 1140l-69 70v103l69 70h103l70 -70v-103l-70 -70h-103z" />
<glyph unicode="&#xfd;" horiz-adv-x="981" d="M541 349l230 703l201 -67l-382 -1170l-132 -131h-296v197h198l48 49l23 70h-37l-385 974l198 78l277 -703l25 -112h7zM399 1070l243 396h215l-278 -396h-180z" />
<glyph unicode="&#xff;" horiz-adv-x="981" d="M541 349l230 703l201 -67l-382 -1170l-132 -131h-296v197h198l48 49l23 70h-37l-385 974l198 78l277 -703l25 -112h7zM264 1140l-70 70v103l70 70h103l70 -70v-103l-70 -70h-103zM624 1140l-70 70v103l70 70h104l69 -70v-103l-69 -70h-104z" />
<glyph unicode="&#x100;" horiz-adv-x="1118" d="M784 318h-448l-115 -356l-203 65l421 1311h241l420 -1311l-201 -65zM535 946l-138 -430h324l-137 430l-21 128h-7zM288 1442v197h543v-197h-543z" />
<glyph unicode="&#x101;" d="M341 1023h398l180 -178v-581l59 -239l-176 -43l-35 144l-109 -126h-392l-181 179v252l181 180h437v156l-59 58h-275l-211 -66l-58 189zM703 316v97h-343l-58 -59v-97l58 -59h239zM254 1127v198h543v-198h-543z" />
<glyph unicode="&#x102;" horiz-adv-x="1118" d="M784 318h-448l-115 -356l-203 65l421 1311h241l420 -1311l-201 -65zM535 946l-138 -430h324l-137 430l-21 128h-7zM876 1598l-139 -138h-354l-140 138v218h179v-154l32 -32h211l32 32v154h179v-218z" />
<glyph unicode="&#x103;" d="M341 1023h398l180 -178v-581l59 -239l-176 -43l-35 144l-109 -126h-392l-181 179v252l181 180h437v156l-59 58h-275l-211 -66l-58 189zM703 316v97h-343l-58 -59v-97l58 -59h239zM852 1302l-140 -137h-345l-139 137v164h179v-100l32 -32h201l33 32v100h179v-164z" />
<glyph unicode="&#x104;" horiz-adv-x="1118" d="M784 318h-448l-115 -356l-203 65l421 1311h241l404 -1261l-217 -154v-25l21 -20h184v-180h-252l-142 142v154l170 123zM535 946l-138 -430h324l-137 430l-21 128h-7z" />
<glyph unicode="&#x105;" d="M646 -49l138 107l-17 68l-109 -126h-392l-181 179v252l181 180h437v156l-59 58h-275l-211 -66l-58 189l241 75h398l180 -178v-581l57 -234l-156 -122v-38l22 -21h198v-151h-252l-142 127v126zM703 316v97h-343l-58 -59v-97l58 -59h239z" />
<glyph unicode="&#x106;" horiz-adv-x="1141" d="M771 198l166 165l149 -146l-218 -217h-537l-218 219v901l218 218h515l218 -218v-234h-216v156l-98 98h-322l-99 -98v-746l99 -98h343zM484 1442l244 395h214l-279 -395h-179z" />
<glyph unicode="&#x107;" horiz-adv-x="996" d="M682 198l208 66l59 -189l-241 -75h-424l-180 179v666l180 178h471l182 -178v-223h-218v145l-58 58h-282l-59 -58v-510l59 -59h303zM403 1108l243 395h215l-279 -395h-179z" />
<glyph unicode="&#x10c;" horiz-adv-x="1141" d="M771 198l166 165l149 -146l-218 -217h-537l-218 219v901l218 218h515l218 -218v-234h-216v156l-98 98h-322l-99 -98v-746l99 -98h343zM501 1422l-267 283h179l180 -170l183 170h179l-267 -283h-187z" />
<glyph unicode="&#x10d;" horiz-adv-x="996" d="M682 198l208 66l59 -189l-241 -75h-424l-180 179v666l180 178h471l182 -178v-223h-218v145l-58 58h-282l-59 -58v-510l59 -59h303zM430 1098l-268 283h179l181 -169l183 169h179l-268 -283h-186z" />
<glyph unicode="&#x10e;" horiz-adv-x="1197" d="M132 1338h735l219 -221v-896l-219 -221h-735v1338zM868 1042l-97 98h-422v-942h422l97 98v746zM486 1422l-267 283h178l182 -170l182 170h179l-267 -283h-187z" />
<glyph unicode="&#x10f;" horiz-adv-x="1305" d="M616 198l103 118v423l-120 86h-220l-59 -58v-510l59 -59h237zM674 0h-390l-180 179v666l180 178h334l101 -74v389h218v-1074l58 -239l-175 -43l-36 144zM1005 829l112 509h226l-188 -509h-150z" />
<glyph unicode="&#x110;" horiz-adv-x="1197" d="M-38 769h170v569h735l219 -221v-896l-219 -221h-735v571h-170v198zM868 1042l-97 98h-422v-371h273v-198h-273v-373h422l97 98v746z" />
<glyph unicode="&#x111;" horiz-adv-x="1079" d="M446 1153h273v185h218v-185h169v-198h-169v-691l58 -239l-175 -43l-36 144l-110 -126h-390l-180 179v511l180 178h334l101 -73v160h-273v198zM616 198l103 118v268l-120 87h-220l-59 -58v-356l59 -59h237z" />
<glyph unicode="&#x112;" horiz-adv-x="1041" d="M132 0v1338h853v-198h-636v-343h557v-198h-557v-401h636v-198h-853zM302 1442v197h543v-197h-543z" />
<glyph unicode="&#x113;" horiz-adv-x="1007" d="M673 198l211 66l58 -189l-241 -75h-417l-180 179v666l180 178h471l182 -178v-289l-162 -160h-455v-139l59 -59h294zM379 825l-59 -58v-174h351l48 49v125l-58 58h-282zM254 1127v198h543v-198h-543z" />
<glyph unicode="&#x116;" horiz-adv-x="1041" d="M132 0v1338h853v-198h-636v-343h557v-198h-557v-401h636v-198h-853zM511 1469l-70 70v104l70 70h104l69 -70v-104l-69 -70h-104z" />
<glyph unicode="&#x117;" horiz-adv-x="1007" d="M673 198l211 66l58 -189l-241 -75h-417l-180 179v666l180 178h471l182 -178v-289l-162 -160h-455v-139l59 -59h294zM379 825l-59 -58v-174h351l48 49v125l-58 58h-282zM469 1140l-70 70v103l70 70h104l69 -70v-103l-69 -70h-104z" />
<glyph unicode="&#x118;" horiz-adv-x="1041" d="M132 0v1338h853v-198h-636v-343h557v-198h-557v-401h636v-198h-361v-102l20 -20h185v-180h-252l-142 142v160h-303z" />
<glyph unicode="&#x119;" horiz-adv-x="1007" d="M673 198l211 66l58 -189l-241 -75h-136v-102l21 -20h185v-180h-253l-141 142v160h-93l-180 179v666l180 178h471l182 -178v-289l-162 -160h-455v-139l59 -59h294zM379 825l-59 -58v-174h351l48 49v125l-58 58h-282z" />
<glyph unicode="&#x11a;" horiz-adv-x="1041" d="M132 0v1338h853v-198h-636v-343h557v-198h-557v-401h636v-198h-853zM469 1422l-268 283h180l180 -170l183 170h180l-268 -283h-187z" />
<glyph unicode="&#x11b;" horiz-adv-x="1007" d="M673 198l211 66l58 -189l-241 -75h-417l-180 179v666l180 178h471l182 -178v-289l-162 -160h-455v-139l59 -59h294zM379 825l-59 -58v-174h351l48 49v125l-58 58h-282zM430 1098l-268 283h179l181 -169l183 169h179l-268 -283h-186z" />
<glyph unicode="&#x11e;" horiz-adv-x="1177" d="M1064 1121v-235h-216v158l-95 96h-329l-95 -96v-751l95 -95h329l95 95v227h-289v198h434l71 -72v-429l-216 -217h-519l-216 217v904l216 217h519zM904 1598l-139 -138h-355l-139 138v218h179v-154l32 -32h212l31 32v154h179v-218z" />
<glyph unicode="&#x11f;" horiz-adv-x="1043" d="M362 -138h368l25 27v50l-25 27h-476l-137 138v186l86 87l-86 87v381l181 178h398l239 59l43 -176l-145 -36l126 -109v-333l-181 -180h-437l-26 -25v-52l26 -26h475l137 -138v-186l-137 -137h-477l-235 73l52 169zM742 721l-118 104h-232l-59 -58v-226l95 -95h256l58 59 v216zM852 1302l-140 -137h-345l-139 137v164h179v-100l32 -32h201l33 32v100h179v-164z" />
<glyph unicode="&#x122;" horiz-adv-x="1177" d="M1064 1121v-235h-216v158l-95 96h-329l-95 -96v-751l95 -95h329l95 95v227h-289v198h434l71 -72v-429l-216 -217h-519l-216 217v904l216 217h519zM369 -575l113 509h226l-188 -509h-151z" />
<glyph unicode="&#x123;" horiz-adv-x="1043" d="M362 -138h368l25 27v50l-25 27h-476l-137 138v186l86 87l-86 87v381l181 178h398l239 59l43 -176l-145 -36l126 -109v-333l-181 -180h-437l-26 -25v-52l26 -26h475l137 -138v-186l-137 -137h-477l-235 73l52 169zM742 721l-118 104h-232l-59 -58v-226l95 -95h256l58 59 v216zM753 1598l-113 -509h-225l188 509h150z" />
<glyph unicode="&#x12b;" horiz-adv-x="482" d="M365 809v-809h-216v782l-64 192l203 68zM-27 1127v198h543v-198h-543z" />
<glyph unicode="&#x12e;" horiz-adv-x="747" d="M279 0h-204v198h191v942h-191v198h598v-198h-191v-942h191v-198h-206v-102l21 -20h185v-180h-253l-141 142v160z" />
<glyph unicode="&#x12f;" horiz-adv-x="482" d="M365 809v-779l-156 -122v-53l23 -21h198v-136h-252l-142 127v126l113 89v742l-64 192l203 68zM205 1140l-70 70v103l70 70h104l70 -70v-103l-70 -70h-104z" />
<glyph unicode="&#x130;" horiz-adv-x="747" d="M673 0h-598v198h191v942h-191v198h598v-198h-191v-942h191v-198zM322 1469l-70 70v104l70 70h104l70 -70v-104l-70 -70h-104z" />
<glyph unicode="&#x131;" horiz-adv-x="482" d="M365 809v-809h-216v782l-64 192l203 68z" />
<glyph unicode="&#x136;" horiz-adv-x="1086" d="M650 761l416 -689l-180 -110l-383 633l-154 -175v-420h-217v1338h217v-597l559 634l160 -139zM365 -575l113 509h227l-189 -509h-151z" />
<glyph unicode="&#x137;" horiz-adv-x="971" d="M385 1123v-494l444 423l143 -151l-337 -320l337 -491l-172 -119l-322 468l-93 -88v-351h-218v1097l-63 192l203 68zM352 -575l114 509h226l-189 -509h-151z" />
<glyph unicode="&#x139;" horiz-adv-x="994" d="M132 0v1338h217v-1140h627v-198h-844zM151 1422l243 396h215l-280 -396h-178z" />
<glyph unicode="&#x13a;" horiz-adv-x="468" d="M365 1123v-1123h-216v1097l-64 192l203 68zM122 1422l243 396h216l-279 -396h-180z" />
<glyph unicode="&#x13b;" horiz-adv-x="994" d="M132 0v1338h217v-1140h627v-198h-844zM365 -575l113 509h227l-189 -509h-151z" />
<glyph unicode="&#x13c;" horiz-adv-x="468" d="M365 1123v-1123h-216v1097l-64 192l203 68zM51 -575l113 509h226l-189 -509h-150z" />
<glyph unicode="&#x13d;" horiz-adv-x="994" d="M132 0v1338h217v-1140h627v-198h-844zM145 1422l-267 283h178l181 -170l183 170h179l-268 -283h-186z" />
<glyph unicode="&#x13e;" horiz-adv-x="734" d="M365 1123v-1123h-216v1097l-64 192l203 68zM433 829l113 509h227l-189 -509h-151z" />
<glyph unicode="&#x141;" horiz-adv-x="994" d="M546 1025v-216l-197 -148v-463h627v-198h-844v503l-170 -124v220l170 122v617h217v-458z" />
<glyph unicode="&#x142;" horiz-adv-x="468" d="M546 933v-217l-181 -134v-582h-216v424l-187 -138v221l187 135v455l-64 192l203 68l77 -234v-323z" />
<glyph unicode="&#x143;" horiz-adv-x="1217" d="M341 1338l492 -860l45 -115h8l-18 117v858h218v-1338h-210l-491 859l-46 115h-8l18 -117v-857h-217v1338h209zM494 1404l243 396h214l-278 -396h-179z" />
<glyph unicode="&#x144;" horiz-adv-x="1081" d="M144 759l-59 239l175 44l36 -145l109 126h392l181 -178v-845h-217v767l-58 58h-239l-104 -118v-707h-216v759zM467 1108l243 395h216l-280 -395h-179z" />
<glyph unicode="&#x145;" horiz-adv-x="1217" d="M341 1338l492 -860l45 -115h8l-18 117v858h218v-1338h-210l-491 859l-46 115h-8l18 -117v-857h-217v1338h209zM383 -575l113 509h225l-187 -509h-151z" />
<glyph unicode="&#x146;" horiz-adv-x="1081" d="M144 759l-59 239l175 44l36 -145l109 126h392l181 -178v-845h-217v767l-58 58h-239l-104 -118v-707h-216v759zM360 -575l113 509h226l-188 -509h-151z" />
<glyph unicode="&#x147;" horiz-adv-x="1217" d="M341 1338l492 -860l45 -115h8l-18 117v858h218v-1338h-210l-491 859l-46 115h-8l18 -117v-857h-217v1338h209zM516 1385l-268 282h180l181 -169l182 169h180l-268 -282h-187z" />
<glyph unicode="&#x148;" horiz-adv-x="1081" d="M144 759l-59 239l175 44l36 -145l109 126h392l181 -178v-845h-217v767l-58 58h-239l-104 -118v-707h-216v759zM488 1098l-267 283h178l182 -169l182 169h179l-268 -283h-186z" />
<glyph unicode="&#x14c;" horiz-adv-x="1233" d="M351 1338h533l237 -217v-904l-237 -217h-533l-238 217v904zM904 1040l-107 100h-360l-108 -100v-744l108 -98h360l107 100v742zM347 1442v197h543v-197h-543z" />
<glyph unicode="&#x14d;" horiz-adv-x="1048" d="M946 181l-179 -181h-485l-178 181v661l178 181h485l179 -181v-661zM379 198h292l59 59v510l-59 58h-292l-59 -58v-510zM259 1127v198h541v-198h-541z" />
<glyph unicode="&#x150;" horiz-adv-x="1233" d="M351 1338h533l237 -217v-904l-237 -217h-533l-238 217v904zM904 1040l-107 100h-360l-108 -100v-744l108 -98h360l107 100v742zM339 1442l243 395h215l-279 -395h-179zM688 1442l243 395h214l-278 -395h-179z" />
<glyph unicode="&#x151;" horiz-adv-x="1048" d="M946 181l-179 -181h-485l-178 181v661l178 181h485l179 -181v-661zM379 198h292l59 59v510l-59 58h-292l-59 -58v-510zM241 1108l243 395h215l-279 -395h-179zM590 1108l243 395h215l-279 -395h-179z" />
<glyph unicode="&#x152;" horiz-adv-x="1719" d="M351 0l-238 217v904l238 217h1312v-198h-617v-343h538v-198h-538v-401h617v-198h-1312zM329 296l108 -98h392v942h-392l-108 -100v-744z" />
<glyph unicode="&#x153;" horiz-adv-x="1633" d="M1298 198l211 66l59 -189l-241 -75h-417l-74 72l-69 -72h-485l-178 181v661l178 181h485l69 -72l74 72h471l181 -178v-289l-162 -160h-454v-139l59 -59h293zM379 198h292l59 59v510l-59 58h-292l-59 -58v-510zM1005 825l-59 -58v-174h350l49 49v125l-58 58h-282z" />
<glyph unicode="&#x154;" horiz-adv-x="1181" d="M776 1140h-427v-426h427l91 88v250zM750 496l356 -390l-158 -144l-505 554h-94v-516h-217v1338h746l206 -204v-415l-206 -203h-125l-43 19l-3 -6zM464 1442l243 395h214l-279 -395h-178z" />
<glyph unicode="&#x155;" horiz-adv-x="939" d="M464 825l-104 -118v-707h-216v759l-59 239l175 44l36 -145l109 126h313l222 -216l-143 -147l-170 165h-163zM444 1108l244 395h215l-279 -395h-180z" />
<glyph unicode="&#x156;" horiz-adv-x="1181" d="M776 1140h-427v-426h427l91 88v250zM750 496l356 -390l-158 -144l-505 554h-94v-516h-217v1338h746l206 -204v-415l-206 -203h-125l-43 19l-3 -6zM365 -575l113 509h227l-189 -509h-151z" />
<glyph unicode="&#x157;" horiz-adv-x="939" d="M464 825l-104 -118v-707h-216v759l-59 239l175 44l36 -145l109 126h313l222 -216l-143 -147l-170 165h-163zM45 -575l113 509h227l-189 -509h-151z" />
<glyph unicode="&#x158;" horiz-adv-x="1181" d="M776 1140h-427v-426h427l91 88v250zM750 496l356 -390l-158 -144l-505 554h-94v-516h-217v1338h746l206 -204v-415l-206 -203h-125l-43 19l-3 -6zM503 1422l-267 283h179l180 -170l183 170h179l-267 -283h-187z" />
<glyph unicode="&#x159;" horiz-adv-x="939" d="M464 825l-104 -118v-707h-216v759l-59 239l175 44l36 -145l109 126h313l222 -216l-143 -147l-170 165h-163zM469 1098l-268 283h180l180 -169l183 169h180l-268 -283h-187z" />
<glyph unicode="&#x15a;" d="M721 1140h-333l-96 -96v-102l12 -27l613 -306l70 -131v-261l-216 -217h-458l-238 79l65 191l207 -72h327l97 95v127l-18 28l-618 309l-60 127v237l217 217h465l230 -78l-58 -186zM448 1442l244 395h214l-279 -395h-179z" />
<glyph unicode="&#x15b;" horiz-adv-x="924" d="M275 725l27 -43l491 -170l72 -116v-217l-180 -179h-401l-237 79l64 191l215 -72h262l61 61v43l-27 43l-492 169l-72 117v214l179 178h403l238 -79l-64 -191l-215 72h-263l-61 -60v-40zM345 1108l243 395h214l-279 -395h-178z" />
<glyph unicode="&#x15e;" d="M721 1140h-333l-96 -96v-102l12 -27l613 -306l70 -131v-261l-216 -217h-458l-238 79l65 191l207 -72h327l97 95v127l-18 28l-618 309l-60 127v237l217 217h465l230 -78l-58 -186zM329 -593l114 508h226l-189 -508h-151z" />
<glyph unicode="&#x15f;" horiz-adv-x="924" d="M275 725l27 -43l491 -170l72 -116v-217l-180 -179h-401l-237 79l64 191l215 -72h262l61 61v43l-27 43l-492 169l-72 117v214l179 178h403l238 -79l-64 -191l-215 72h-263l-61 -60v-40zM277 -593l113 508h226l-188 -508h-151z" />
<glyph unicode="&#x160;" d="M721 1140h-333l-96 -96v-102l12 -27l613 -306l70 -131v-261l-216 -217h-458l-238 79l65 191l207 -72h327l97 95v127l-18 28l-618 309l-60 127v237l217 217h465l230 -78l-58 -186zM462 1422l-268 283h180l180 -170l183 170h178l-266 -283h-187z" />
<glyph unicode="&#x161;" horiz-adv-x="924" d="M275 725l27 -43l491 -170l72 -116v-217l-180 -179h-401l-237 79l64 191l215 -72h262l61 61v43l-27 43l-492 169l-72 117v214l179 178h403l238 -79l-64 -191l-215 72h-263l-61 -60v-40zM365 1098l-267 283h179l181 -169l182 169h180l-268 -283h-187z" />
<glyph unicode="&#x162;" horiz-adv-x="1014" d="M616 1140v-1140h-217v1140h-381v198h978v-198h-380zM305 -593l114 508h225l-188 -508h-151z" />
<glyph unicode="&#x163;" horiz-adv-x="872" d="M207 807h-169v198h169v277h217v-277h273v-198h-273v-550l58 -59h127l205 64l58 -187l-241 -75h-245l-179 179v628zM311 -593l113 508h226l-188 -508h-151z" />
<glyph unicode="&#x164;" horiz-adv-x="1014" d="M616 1140v-1140h-217v1140h-381v198h978v-198h-380zM417 1422l-268 283h179l181 -170l183 170h178l-267 -283h-186z" />
<glyph unicode="&#x165;" horiz-adv-x="998" d="M207 807h-169v198h169v277h217v-277h236v-198h-236v-550l58 -59h127l205 64l58 -187l-241 -75h-245l-179 179v628zM697 829l114 509h225l-188 -509h-151z" />
<glyph unicode="&#x16a;" horiz-adv-x="1177" d="M331 0l-218 217v1121h216v-1042l97 -98h326l96 98v1042h216v-1121l-218 -217h-515zM316 1442v197h543v-197h-543z" />
<glyph unicode="&#x16b;" horiz-adv-x="1081" d="M938 264l58 -239l-174 -43l-36 144l-110 -126h-392l-180 179v844h216v-766l59 -59h239l103 118v707h217v-759zM254 1127v198h543v-198h-543z" />
<glyph unicode="&#x16e;" horiz-adv-x="1177" d="M331 0l-218 217v1121h216v-1042l97 -98h326l96 98v1042h216v-1121l-218 -217h-515zM626 1564l20 20v113h170v-152l-142 -141h-169l-142 141v152h171v-113l20 -20h72z" />
<glyph unicode="&#x16f;" horiz-adv-x="1081" d="M938 264l58 -239l-174 -43l-36 144l-110 -126h-392l-180 179v844h216v-766l59 -59h239l103 118v707h217v-759zM563 1381h-71l-21 -20v-72l21 -21h71l21 21v72zM613 1541l140 -141v-151l-140 -141h-170l-141 141v151l141 141h170z" />
<glyph unicode="&#x170;" horiz-adv-x="1177" d="M331 0l-218 217v1121h216v-1042l97 -98h326l96 98v1042h216v-1121l-218 -217h-515zM305 1442l243 395h215l-279 -395h-179zM654 1442l243 395h214l-278 -395h-179z" />
<glyph unicode="&#x171;" horiz-adv-x="1081" d="M938 264l58 -239l-174 -43l-36 144l-110 -126h-392l-180 179v844h216v-766l59 -59h239l103 118v707h217v-759zM243 1108l243 395h215l-279 -395h-179zM592 1108l242 395h216l-279 -395h-179z" />
<glyph unicode="&#x172;" horiz-adv-x="1177" d="M331 0l-218 217v1121h216v-1042l97 -98h326l96 98v1042h216v-1121l-218 -217h-164v-102l21 -20h185v-180h-253l-141 142v160h-163z" />
<glyph unicode="&#x173;" horiz-adv-x="1081" d="M665 -49l137 107l-16 68l-110 -126h-392l-180 179v844h216v-766l59 -59h239l103 118v707h217v-759l57 -234l-157 -122v-53l23 -21h198v-136h-252l-142 127v126z" />
<glyph unicode="&#x178;" horiz-adv-x="1107" d="M444 417l-426 861l196 97l315 -636l21 -110h8l21 110l314 636l196 -97l-428 -865v-413h-217v417zM326 1469l-69 70v104l69 70h104l70 -70v-104l-70 -70h-104zM678 1469l-69 70v104l69 70h104l70 -70v-104l-70 -70h-104z" />
<glyph unicode="&#x179;" horiz-adv-x="1045" d="M360 198h620v-198h-924v164l634 956l43 33l-3 6l-45 -19h-619v198h923v-168l-633 -951l-43 -34l3 -6zM419 1442l242 395h215l-279 -395h-178z" />
<glyph unicode="&#x17a;" horiz-adv-x="888" d="M352 198h496v-198h-810v169l505 635l43 34l-4 7l-43 -20h-498v198h811v-171l-503 -633l-44 -34l4 -6zM354 1108l243 395h215l-278 -395h-180z" />
<glyph unicode="&#x17b;" horiz-adv-x="1045" d="M360 198h620v-198h-924v164l634 956l43 33l-3 6l-45 -19h-619v198h923v-168l-633 -951l-43 -34l3 -6zM477 1469l-70 70v104l70 70h104l69 -70v-104l-69 -70h-104z" />
<glyph unicode="&#x17c;" horiz-adv-x="888" d="M352 198h496v-198h-810v169l505 635l43 34l-4 7l-43 -20h-498v198h811v-171l-503 -633l-44 -34l4 -6zM394 1140l-70 70v103l70 70h104l69 -70v-103l-69 -70h-104z" />
<glyph unicode="&#x17d;" horiz-adv-x="1045" d="M360 198h620v-198h-924v164l634 956l43 33l-3 6l-45 -19h-619v198h923v-168l-633 -951l-43 -34l3 -6zM448 1422l-267 283h179l181 -170l182 170h180l-268 -283h-187z" />
<glyph unicode="&#x17e;" horiz-adv-x="888" d="M352 198h496v-198h-810v169l505 635l43 34l-4 7l-43 -20h-498v198h811v-171l-503 -633l-44 -34l4 -6zM365 1098l-267 283h179l181 -169l182 169h180l-268 -283h-187z" />
<glyph unicode="&#x218;" d="M721 1140h-333l-96 -96v-102l12 -27l613 -306l70 -131v-261l-216 -217h-458l-238 79l65 191l207 -72h327l97 95v127l-18 28l-618 309l-60 127v237l217 217h465l230 -78l-58 -186zM329 -593l114 508h226l-189 -508h-151z" />
<glyph unicode="&#x219;" horiz-adv-x="924" d="M275 725l27 -43l491 -170l72 -116v-217l-180 -179h-401l-237 79l64 191l215 -72h262l61 61v43l-27 43l-492 169l-72 117v214l179 178h403l238 -79l-64 -191l-215 72h-263l-61 -60v-40zM277 -593l113 508h226l-188 -508h-151z" />
<glyph unicode="&#x401;" horiz-adv-x="1041" d="M132 0v1338h853v-198h-636v-343h557v-198h-557v-401h636v-198h-853zM339 1469l-69 70v104l69 70h104l69 -70v-104l-69 -70h-104zM692 1469l-70 70v104l70 70h103l70 -70v-104l-70 -70h-103z" />
<glyph unicode="&#x402;" horiz-adv-x="1260" d="M931 203v401l-57 56h-354l-101 -23v-637h-218v1140h-239v198h696v-198h-239v-318l163 35h387l178 -181v-529l-129 -181l-274 -96l-68 188l202 72z" />
<glyph unicode="&#x403;" horiz-adv-x="992" d="M349 1140v-1140h-217v1338h842v-198h-625zM453 1442l187 320h208l-226 -320h-169z" />
<glyph unicode="&#x404;" horiz-adv-x="1141" d="M771 198l166 165l149 -146l-218 -217h-537l-218 219v901l218 218h515l218 -218v-234h-216v156l-98 98h-322l-99 -98v-290h460v-198h-460v-258l99 -98h343z" />
<glyph unicode="&#x405;" d="M721 1140h-333l-96 -96v-102l12 -27l613 -306l70 -131v-261l-216 -217h-458l-238 79l65 191l207 -72h327l97 95v127l-18 28l-618 309l-60 127v237l217 217h465l230 -78l-58 -186z" />
<glyph unicode="&#x406;" horiz-adv-x="747" d="M673 0h-598v198h191v942h-191v198h598v-198h-191v-942h191v-198z" />
<glyph unicode="&#x407;" horiz-adv-x="747" d="M673 0h-598v198h191v942h-191v198h598v-198h-191v-942h191v-198zM147 1451l-70 70v103l70 70h103l70 -70v-103l-70 -70h-103zM500 1451l-70 70v103l70 70h103l70 -70v-103l-70 -70h-103z" />
<glyph unicode="&#x408;" horiz-adv-x="1024" d="M259 0l-259 259l147 144l209 -205h241l99 98v844h-261v198h477v-1119l-218 -219h-435z" />
<glyph unicode="&#x409;" horiz-adv-x="1830" d="M1080 1338v-486h459l217 -221v-410l-217 -221h-676v1140h-341l-96 -942l-153 -157l-209 -70l-64 193l153 50l64 67l109 1057h754zM1539 554l-99 100h-360v-456h360l99 100v256z" />
<glyph unicode="&#x40a;" horiz-adv-x="1778" d="M811 838v500h216v-500h460l216 -220v-397l-216 -221h-676v640h-462v-640h-217v1338h217v-500h462zM1487 541l-101 99h-359v-442h359l101 100v243z" />
<glyph unicode="&#x40b;" horiz-adv-x="1260" d="M419 637v-637h-218v1140h-239v198h696v-198h-239v-318l163 35h387l178 -181v-676h-216v604l-57 56h-354z" />
<glyph unicode="&#x40c;" horiz-adv-x="1116" d="M351 776h161l263 513l259 77l64 -192l-165 -49l-234 -456l234 -456l165 -49l-64 -193l-259 78l-272 530h-152v-579h-219v1338h219v-562zM453 1375l187 321h208l-226 -321h-169z" />
<glyph unicode="&#x40e;" horiz-adv-x="1107" d="M613 635l299 740l196 -79l-468 -1152l-151 -144h-284v198h208l37 36l32 82l-482 964l192 95l371 -740l21 -110h8zM903 1557l-140 -138h-392l-139 138v218h178v-155l33 -32h249l31 32v155h180v-218z" />
<glyph unicode="&#x40f;" horiz-adv-x="1212" d="M716 0v-316h-216v316h-368v1338h217v-1140h516v1140h217v-1338h-366z" />
<glyph unicode="&#x410;" horiz-adv-x="1118" d="M784 318h-448l-115 -356l-203 65l421 1311h241l420 -1311l-201 -65zM535 946l-138 -430h324l-137 430l-21 128h-7z" />
<glyph unicode="&#x411;" horiz-adv-x="1158" d="M132 0v1338h873v-198h-656v-317h518l217 -220v-382l-217 -221h-735zM867 525l-100 101h-418v-428h418l100 100v227z" />
<glyph unicode="&#x412;" horiz-adv-x="1177" d="M919 697l165 -128v-350l-219 -219h-733v1338h731l181 -182v-361zM867 501l-125 96h-393v-399h424l94 94v209zM349 1140v-345h403l75 59v228l-58 58h-420z" />
<glyph unicode="&#x413;" horiz-adv-x="992" d="M349 1140v-1140h-217v1338h842v-198h-625z" />
<glyph unicode="&#x414;" horiz-adv-x="1273" d="M1236 198v-514h-217v316h-802v-316h-217v514h124l76 160l109 980h789v-1140h138zM410 309l-52 -111h523v942h-378z" />
<glyph unicode="&#x415;" horiz-adv-x="1041" d="M132 0v1338h853v-198h-636v-343h557v-198h-557v-401h636v-198h-853z" />
<glyph unicode="&#x416;" horiz-adv-x="1693" d="M599 776h140v562h216v-562h140l262 513l254 77l64 -190l-166 -51l-234 -456l234 -456l166 -51l-64 -191l-254 78l-271 530h-131v-579h-216v579h-130l-271 -530l-255 -78l-65 191l167 51l234 456l-234 456l-167 51l65 190l255 -77z" />
<glyph unicode="&#x417;" horiz-adv-x="1052" d="M730 854v199l-90 87h-352l-203 -72l-68 191l242 79h482l205 -205v-338l-151 -119l164 -128v-331l-217 -217h-510l-232 79l66 187l205 -68h373l98 98v184l-124 97h-320v198h329z" />
<glyph unicode="&#x418;" horiz-adv-x="1217" d="M385 478l491 860h210v-1338h-218v857l18 117h-8l-45 -115l-492 -859h-209v1338h217v-858l-18 -117h8z" />
<glyph unicode="&#x419;" horiz-adv-x="1217" d="M944 1598l-140 -138h-391l-140 138v218h180v-154l31 -32h249l32 32v154h179v-218zM385 478l491 860h210v-1338h-218v857l18 117h-8l-45 -115l-492 -859h-209v1338h217v-858l-18 -117h8z" />
<glyph unicode="&#x41a;" horiz-adv-x="1116" d="M351 776h161l263 513l259 77l64 -192l-165 -49l-234 -456l234 -456l165 -49l-64 -193l-259 78l-272 530h-152v-579h-219v1338h219v-562z" />
<glyph unicode="&#x41b;" horiz-adv-x="1267" d="M1136 1338v-1338h-217v1140h-397l-96 -942l-153 -157l-209 -70l-64 193l153 50l64 67l109 1057h810z" />
<glyph unicode="&#x41c;" horiz-adv-x="1566" d="M699 304l-314 555l-46 115h-8l18 -117v-857h-217v1338h215l410 -722l23 -62h8l23 62l410 722h215v-1338h-217v857l17 117h-8l-45 -115l-315 -555h-169z" />
<glyph unicode="&#x41d;" horiz-adv-x="1214" d="M867 797v541h217v-1338h-217v599h-518v-599h-217v1338h217v-541h518z" />
<glyph unicode="&#x41e;" horiz-adv-x="1233" d="M351 1338h533l237 -217v-904l-237 -217h-533l-238 217v904zM904 1040l-107 100h-360l-108 -100v-744l108 -98h360l107 100v742z" />
<glyph unicode="&#x41f;" horiz-adv-x="1214" d="M349 1140v-1140h-217v1338h952v-1338h-217v1140h-518z" />
<glyph unicode="&#x420;" horiz-adv-x="1158" d="M349 466v-466h-217v1338h733l219 -217v-439l-219 -216h-516zM771 1140h-422v-477h422l96 98v281z" />
<glyph unicode="&#x421;" horiz-adv-x="1141" d="M771 198l166 165l149 -146l-218 -217h-537l-218 219v901l218 218h515l218 -218v-234h-216v156l-98 98h-322l-99 -98v-746l99 -98h343z" />
<glyph unicode="&#x422;" horiz-adv-x="1014" d="M616 1140v-1140h-217v1140h-381v198h978v-198h-380z" />
<glyph unicode="&#x423;" horiz-adv-x="1107" d="M613 635l299 740l196 -79l-468 -1152l-151 -144h-284v198h208l37 36l32 82l-482 964l192 95l371 -740l21 -110h8z" />
<glyph unicode="&#x424;" horiz-adv-x="1553" d="M313 1244h356v216h217v-216h356l218 -219v-637l-218 -219h-356v-216h-217v216h-356l-219 219v637zM1145 1046h-259v-679h259l99 99v482zM669 1046h-261l-97 -98v-482l97 -99h261v679z" />
<glyph unicode="&#x425;" horiz-adv-x="1081" d="M537 833h8l22 62l321 480l175 -116l-398 -596l392 -582l-177 -119l-313 466l-22 61h-8l-23 -61l-313 -466l-176 119l392 582l-399 596l176 116l320 -480z" />
<glyph unicode="&#x426;" horiz-adv-x="1276" d="M132 0v1338h217v-1140h516v1140h217v-1140h158v-514h-217v316h-891z" />
<glyph unicode="&#x427;" horiz-adv-x="1190" d="M842 701v637h217v-1338h-217v516l-164 -36h-386l-179 181v677h216v-605l57 -55h355z" />
<glyph unicode="&#x428;" horiz-adv-x="1897" d="M1765 0h-1633v1338h215v-1140h493v1140h217v-1140h491v1140h217v-1338z" />
<glyph unicode="&#x429;" horiz-adv-x="1906" d="M132 0v1338h217v-1140h465v1140h216v-1140h464v1140h217v-1140h158v-514h-217v316h-1520z" />
<glyph unicode="&#x42a;" horiz-adv-x="1293" d="M270 0v1140h-270v198h486v-486h517l216 -221v-410l-216 -221h-733zM1003 554l-100 100h-417v-456h417l100 100v256z" />
<glyph unicode="&#x42b;" horiz-adv-x="1625" d="M1278 0v1338h216v-1338h-216zM132 0v1338h217v-486h516l217 -221v-410l-217 -221h-733zM865 554l-100 100h-416v-456h416l100 100v256z" />
<glyph unicode="&#x42c;" horiz-adv-x="1156" d="M132 0v1338h217v-486h516l217 -221v-410l-217 -221h-733zM865 554l-100 100h-416v-456h416l100 100v256z" />
<glyph unicode="&#x42d;" horiz-adv-x="1141" d="M205 363l166 -165h343l98 98v258h-460v198h460v290l-98 98h-322l-99 -98v-156h-216v234l219 218h515l218 -218v-901l-218 -219h-538l-217 217z" />
<glyph unicode="&#x42e;" horiz-adv-x="1667" d="M814 1338h503l238 -217v-904l-238 -217h-503l-237 217v380h-228v-597h-217v1338h217v-543h228v326zM1338 1040l-108 100h-329l-108 -100v-744l108 -98h329l108 100v742z" />
<glyph unicode="&#x42f;" horiz-adv-x="1181" d="M833 1140h-428l-90 -88v-272l90 -88h428v448zM396 494h-92l-206 203v437l206 204h746v-1338h-217v494h-175l-272 -447l-246 -76l-65 191l166 51l158 260l44 34l-4 5z" />
<glyph unicode="&#x430;" d="M341 1023h398l180 -178v-581l59 -239l-176 -43l-35 144l-109 -126h-392l-181 179v252l181 180h437v156l-59 58h-275l-211 -66l-58 189zM703 316v97h-343l-58 -59v-97l58 -59h239z" />
<glyph unicode="&#x431;" horiz-adv-x="1039" d="M320 951v-117l102 74h345l179 -178v-551l-179 -179h-485l-178 179v846l239 246l342 67l165 117l124 -177l-177 -127l-347 -65zM671 710h-230l-121 -86v-367l59 -59h292l59 59v395z" />
<glyph unicode="&#x432;" horiz-adv-x="1016" d="M620 622l64 45v132l-26 26h-338v-203h300zM716 358l-90 66h-306v-226h338l58 59v101zM933 422v-244l-178 -178h-651v1023h649l148 -147v-275l-108 -78z" />
<glyph unicode="&#x433;" horiz-adv-x="838" d="M322 823v-823h-218v1023h716v-200h-498z" />
<glyph unicode="&#x434;" horiz-adv-x="1100" d="M405 313l-54 -115h380v627h-273zM846 0h-629v-282h-217v480h113l72 149l69 676h694v-825h115v-480h-217v282z" />
<glyph unicode="&#x435;" horiz-adv-x="1007" d="M673 198l211 66l58 -189l-241 -75h-417l-180 179v666l180 178h471l182 -178v-289l-162 -160h-455v-139l59 -59h294zM379 825l-59 -58v-174h351l48 49v125l-58 58h-282z" />
<glyph unicode="&#x436;" horiz-adv-x="1372" d="M579 606v417h216v-417h38l237 351l200 104l94 -183l-138 -71l-201 -298l201 -292l138 -72l-94 -183l-200 104l-237 342h-38v-408h-216v408h-38l-237 -342l-200 -104l-95 183l138 72l202 292l-202 298l-138 71l95 183l200 -104l237 -351h38z" />
<glyph unicode="&#x437;" horiz-adv-x="949" d="M270 0l-241 75l57 189l212 -66h292l59 59v92l-91 66h-298v198h292l86 61v101l-50 50h-288l-196 -66l-63 185l236 79h407l172 -171v-243l-131 -95l140 -101v-234l-180 -179h-415z" />
<glyph unicode="&#x438;" horiz-adv-x="1082" d="M365 435l-16 -117h7l45 115l368 590h211v-1023h-217v588l17 117h-7l-45 -115l-368 -590h-211v791l-64 192l203 69l77 -234v-383z" />
<glyph unicode="&#x439;" horiz-adv-x="1082" d="M895 1302l-140 -137h-381l-140 137v164h179v-100l31 -32h240l32 32v100h179v-164zM365 435l-16 -117h7l45 115l368 590h211v-1023h-217v588l17 117h-7l-45 -115l-368 -590h-211v791l-64 192l203 69l77 -234v-383z" />
<glyph unicode="&#x43a;" horiz-adv-x="939" d="M320 606h79l238 351l199 104l95 -183l-138 -71l-201 -298l201 -292l138 -72l-95 -183l-199 104l-238 342h-79v-408h-216v1023h216v-417z" />
<glyph unicode="&#x43b;" horiz-adv-x="1075" d="M972 1023v-1023h-217v825h-282l-74 -644l-131 -138l-198 -72l-70 191l124 45l65 66l84 750h699z" />
<glyph unicode="&#x43c;" horiz-adv-x="1273" d="M552 232l-196 339l-45 114h-7l16 -116v-569h-216v1023h211l296 -512l22 -63h7l23 63l296 512h211v-1023h-217v569l18 116h-8l-46 -114l-196 -339h-169z" />
<glyph unicode="&#x43d;" horiz-adv-x="1084" d="M149 791l-64 192l203 69l77 -234v-212h400v417h217v-1023h-217v408h-400v-408h-216v791z" />
<glyph unicode="&#x43e;" horiz-adv-x="1048" d="M946 181l-179 -181h-485l-178 181v661l178 181h485l179 -181v-661zM379 198h292l59 59v510l-59 58h-292l-59 -58v-510z" />
<glyph unicode="&#x43f;" horiz-adv-x="1039" d="M320 825v-825h-216v1023h833v-1023h-218v825h-399z" />
<glyph unicode="&#x440;" horiz-adv-x="1079" d="M464 825l-104 -118v-423l120 -86h221l58 59v510l-58 58h-237zM405 1023h390l181 -178v-666l-181 -179h-333l-102 74v-390h-216v1075l-59 239l175 44l36 -145z" />
<glyph unicode="&#x441;" horiz-adv-x="996" d="M682 198l208 66l59 -189l-241 -75h-424l-180 179v666l180 178h471l182 -178v-223h-218v145l-58 58h-282l-59 -58v-510l59 -59h303z" />
<glyph unicode="&#x442;" horiz-adv-x="849" d="M18 1023h813v-198h-297v-825h-218v825h-298v198z" />
<glyph unicode="&#x443;" horiz-adv-x="981" d="M541 349l230 703l201 -67l-382 -1170l-132 -131h-296v197h198l48 49l23 70h-37l-385 974l198 78l277 -703l25 -112h7z" />
<glyph unicode="&#x444;" horiz-adv-x="1365" d="M791 1133v-146l126 36h169l176 -177v-668l-176 -178h-169l-126 36v-352h-216v352l-127 -36h-167l-177 178v668l177 177h167l127 -36v119l-64 192l203 68zM1046 767l-59 58h-135l-61 -16v-595l61 -16h135l59 59v510zM379 825l-59 -58v-510l59 -59h135l61 16v595l-61 16 h-135z" />
<glyph unicode="&#x445;" horiz-adv-x="930" d="M462 661h7l23 62l249 338l171 -126l-315 -426l315 -419l-170 -128l-250 334l-23 62h-7l-23 -62l-250 -334l-171 128l315 419l-315 426l172 126l249 -338z" />
<glyph unicode="&#x446;" horiz-adv-x="1092" d="M838 0h-734v1023h216v-825h399v825h218v-825h118v-480h-217v282z" />
<glyph unicode="&#x447;" horiz-adv-x="998" d="M678 539v484h217v-1023h-217v360l-126 -36h-290l-177 177v522h217v-442l58 -59h258z" />
<glyph unicode="&#x448;" horiz-adv-x="1550" d="M1447 0h-1343v1023h216v-825h347v825h217v-825h346v825h217v-1023z" />
<glyph unicode="&#x449;" horiz-adv-x="1602" d="M1349 0h-1245v1023h216v-825h347v825h217v-825h346v825h217v-825h119v-480h-217v282z" />
<glyph unicode="&#x44a;" horiz-adv-x="1154" d="M273 0v825h-255v198h471v-339h440l179 -179v-326l-179 -179h-656zM891 428l-58 58h-344v-288h344l58 59v171z" />
<glyph unicode="&#x44b;" horiz-adv-x="1408" d="M1305 1023v-1023h-216v1023h216zM104 0v1023h216v-339h439l179 -179v-326l-179 -179h-655zM721 428l-58 58h-343v-288h343l58 59v171z" />
<glyph unicode="&#x44c;" horiz-adv-x="985" d="M104 0v1023h216v-339h439l179 -179v-326l-179 -179h-655zM721 428l-58 58h-343v-288h343l58 59v171z" />
<glyph unicode="&#x44d;" horiz-adv-x="996" d="M108 264l207 -66h303l58 59v151h-365v201h365v158l-58 58h-282l-59 -58v-145h-216v223l180 178h471l181 -178v-666l-181 -179h-424l-241 75z" />
<glyph unicode="&#x44e;" horiz-adv-x="1388" d="M1285 181l-179 -181h-456l-179 181v227h-151v-408h-216v1023h216v-417h151v236l179 181h456l179 -181v-661zM746 198h264l58 59v510l-58 58h-264l-58 -58v-510z" />
<glyph unicode="&#x44f;" horiz-adv-x="1014" d="M347 556h349v269h-349l-51 -50v-169zM304 358h-65l-160 158v349l160 158h673v-1023h-216v358h-99l-248 -292l-200 -104l-93 182l153 79l98 115l44 33l-4 6z" />
<glyph unicode="&#x451;" horiz-adv-x="1007" d="M673 198l211 66l58 -189l-241 -75h-417l-180 179v666l180 178h471l182 -178v-289l-162 -160h-455v-139l59 -59h294zM379 825l-59 -58v-174h351l48 49v125l-58 58h-282zM298 1140l-70 70v103l70 70h103l70 -70v-103l-70 -70h-103zM658 1140l-70 70v103l70 70h103l70 -70 v-103l-70 -70h-103z" />
<glyph unicode="&#x452;" horiz-adv-x="1086" d="M786 203v353l-58 59h-221l-121 -88v-527h-217v899h-169v198h169l-63 192l203 68l77 -234v-26h274v-198h-274v-160l102 73h334l181 -179v-486l-131 -181l-273 -96l-67 188l201 72z" />
<glyph unicode="&#x453;" horiz-adv-x="838" d="M322 823v-823h-218v1023h716v-200h-498zM349 1127l188 320h207l-226 -320h-169z" />
<glyph unicode="&#x454;" horiz-adv-x="996" d="M682 198l208 66l59 -189l-241 -75h-424l-180 179v666l180 178h471l182 -178v-223h-218v145l-58 58h-282l-59 -58v-158h365v-201h-365v-151l59 -59h303z" />
<glyph unicode="&#x455;" horiz-adv-x="943" d="M284 725l27 -43l491 -170l72 -116v-217l-178 -179h-403l-237 79l65 191l215 -72h261l61 61v43l-27 43l-491 169l-72 117v214l179 178h403l238 -79l-65 -191l-214 72h-264l-61 -60v-40z" />
<glyph unicode="&#x456;" horiz-adv-x="482" d="M365 809v-809h-216v782l-64 192l203 68zM205 1140l-70 70v103l70 70h104l70 -70v-103l-70 -70h-104z" />
<glyph unicode="&#x457;" horiz-adv-x="482" d="M365 809v-809h-216v782l-64 192l203 68zM27 1140l-70 70v103l70 70h103l70 -70v-103l-70 -70h-103zM386 1140l-70 70v103l70 70h103l70 -70v-103l-70 -70h-103z" />
<glyph unicode="&#x458;" horiz-adv-x="478" d="M362 809v-867l-130 -181l-309 -110l-65 191l234 83l53 73v784l-64 192l203 68zM201 1140l-69 70v103l69 70h104l70 -70v-103l-70 -70h-104z" />
<glyph unicode="&#x459;" horiz-adv-x="1523" d="M708 0v825h-235l-74 -644l-131 -138l-198 -72l-70 191l124 45l65 66l84 750h653v-358h372l180 -179v-307l-180 -179h-590zM1260 408l-58 59h-276v-269h276l58 59v151z" />
<glyph unicode="&#x45a;" horiz-adv-x="1533" d="M708 0v439h-343v-439h-216v791l-64 192l203 69l77 -234v-181h343v386h218v-386h381l180 -179v-279l-180 -179h-599zM1270 381l-58 58h-286v-241h286l58 59v124z" />
<glyph unicode="&#x45b;" horiz-adv-x="1086" d="M0 1097h169l-63 192l203 68l77 -234v-26h274v-198h-274v-160l102 73h334l181 -179v-633h-217v556l-58 59h-221l-121 -88v-527h-217v899h-169v198z" />
<glyph unicode="&#x45c;" horiz-adv-x="939" d="M320 606h79l238 351l199 104l95 -183l-138 -71l-201 -298l201 -292l138 -72l-95 -183l-199 104l-238 342h-79v-408h-216v1023h216v-417zM367 1061l189 320h207l-226 -320h-170z" />
<glyph unicode="&#x45e;" horiz-adv-x="981" d="M541 349l230 703l201 -67l-382 -1170l-132 -131h-296v197h198l48 49l23 70h-37l-385 974l198 78l277 -703l25 -112h7zM829 1264l-139 -137h-383l-140 137v164h180v-100l32 -32h239l32 32v100h179v-164z" />
<glyph unicode="&#x45f;" horiz-adv-x="1039" d="M937 1023v-1023h-308v-282h-216v282h-309v1023h216v-825h399v825h218z" />
<glyph unicode="&#x490;" horiz-adv-x="992" d="M974 1140h-625v-1140h-217v1338h625v169h217v-367z" />
<glyph unicode="&#x491;" horiz-adv-x="838" d="M603 1023v151h217v-351h-498v-823h-218v1023h499z" />
<glyph unicode="&#x2013;" horiz-adv-x="1028" d="M38 475v199h953v-199h-953z" />
<glyph unicode="&#x2014;" horiz-adv-x="1379" d="M38 475v199h1303v-199h-1303z" />
<glyph unicode="&#x2018;" horiz-adv-x="357" d="M339 1338l-113 -509h-226l189 509h150z" />
<glyph unicode="&#x2019;" horiz-adv-x="357" d="M18 829l114 509h226l-189 -509h-151z" />
<glyph unicode="&#x201a;" horiz-adv-x="357" d="M18 -339l114 508h226l-189 -508h-151z" />
<glyph unicode="&#x201c;" horiz-adv-x="678" d="M660 1338l-114 -509h-226l189 509h151zM339 1338l-113 -509h-226l189 509h150z" />
<glyph unicode="&#x201d;" horiz-adv-x="678" d="M18 829l114 509h226l-189 -509h-151zM339 829l114 509h225l-189 -509h-150z" />
<glyph unicode="&#x201e;" horiz-adv-x="678" d="M18 -339l114 508h226l-189 -508h-151zM339 -339l114 508h225l-189 -508h-150z" />
<glyph unicode="&#x2020;" horiz-adv-x="828" d="M0 744v198h305v396h218v-396h306v-198h-306v-1060h-218v1060h-305z" />
<glyph unicode="&#x2021;" horiz-adv-x="828" d="M0 744v198h305v396h218v-396h306v-198h-306v-467h306v-198h-306v-395h-218v395h-305v198h305v467h-305z" />
<glyph unicode="&#x2022;" horiz-adv-x="753" d="M500 951l178 -178v-227l-178 -179h-246l-179 179v227l179 178h246z" />
<glyph unicode="&#x2026;" horiz-adv-x="1068" d="M126 -29l-70 70v104l70 69h104l70 -69v-104l-70 -70h-104zM482 -29l-69 70v104l69 69h104l70 -69v-104l-70 -70h-104zM838 -29l-69 70v104l69 69h104l70 -69v-104l-70 -70h-104z" />
<glyph unicode="&#x2030;" horiz-adv-x="2188" d="M1030 584h245l180 -179v-226l-180 -179h-245l-178 179v226zM341 -38l-162 124l991 1289l162 -126zM1208 405h-110l-58 -58v-110l58 -58h110l58 58v110zM413 1159h-109l-59 -59v-109l59 -58h109l58 58v109zM480 1338l180 -179v-226l-180 -180h-244l-180 180v226l180 179 h244zM1709 584h245l179 -179v-226l-179 -179h-245l-179 179v226zM1886 405h-109l-58 -58v-110l58 -58h109l59 58v110z" />
<glyph unicode="&#x2039;" horiz-adv-x="678" d="M38 552l485 437l137 -151l-381 -342l381 -343l-137 -151l-485 437v113z" />
<glyph unicode="&#x203a;" horiz-adv-x="678" d="M155 989l485 -437v-113l-485 -437l-137 151l381 343l-381 342z" />
<glyph unicode="&#x20ac;" horiz-adv-x="1141" d="M18 712v142h95v266l218 218h515l218 -218v-234h-216v156l-98 98h-322l-99 -98v-188h471v-142h-471v-86h453v-142h-453v-188l99 -98h343l166 165l149 -146l-218 -217h-537l-218 219v265h-113v142h113v86h-95z" />
<glyph unicode="&#x2116;" horiz-adv-x="1895" d="M1246 462v198h584v-198h-584zM1593 1159h-110l-59 -59v-109l59 -58h110l57 58v109zM1660 1338l179 -179v-226l-179 -180h-245l-179 180v226l179 179h245zM341 1338l492 -860l45 -115h8l-18 117v858h218v-1338h-210l-491 859l-46 115h-8l18 -117v-857h-217v1338h209z" />
<glyph unicode="&#x2122;" horiz-adv-x="1518" d="M0 1338h613v-198h-198v-462h-217v462h-198v198zM888 942v-264h-198v660h214l162 -330l162 330h215v-660h-197v264l20 115h-7l-34 -109l-80 -160h-158l-79 160l-34 109h-7z" />
<glyph unicode="&#x25fc;" horiz-adv-x="1064" d="M0 1064h1064v-1064h-1064v1064z" />
<glyph horiz-adv-x="4417" d="M2553 301.5q0 -134.5 -93 -227t-227.5 -92.5t-227 92.5t-92.5 227t92.5 227.5t227 93t227.5 -93t93 -227.5zM640 0h-602v603zM3806 0h-603l301 603zM4146 301.5q0 -134.5 -93.5 -227t-228.5 -92.5v640q135 0 228.5 -93t93.5 -227.5zM3184 603v-556l-537 556h537zM2600 0 v556l537 -556h-537zM1262 603l302 -603h-302v603zM1866 603v-603h-302zM640 0v302l604 -302h-604zM640 603h604l-604 -301v301zM914 669h-603l603 602v-602zM1602 970.5q0 -134.5 -93 -227.5t-227.5 -93t-228 93t-93.5 227.5t93.5 227.5t228 93t227.5 -93t93 -227.5z M1545 1271h603l-302 -602zM2535 669h-604l302 602zM3137 1271v-555l-537 555h537zM2553 669v556l537 -556h-537zM3797 1271v-555l-537 555h537zM3213 669v556l537 -556h-537zM3815 1271h604l-302 -602z" />
</font>
</defs>
</svg>
